PathFileType	4	(X/Y/Z)	Kaydara	
DataRate	CameraRate	NumFrames	NumMarkers	Units	OrigDataRate	OrigDataStartFrame	OrigNumFrames	
60.00	60.00	4	74	mm	60.00	602	200	
Frame#	Time	Z_lasi			Z_rasi			Z_rpsi			Z_lpsi			Z_fneck			Z_bneck			Z_fhead			Z_rhead			Z_lhead			Z_rshld			Z_relbtop			Z_relbext			Z_relblow			Z_rwrext			Z_rwrtop			Z_rwrlow			Z_lshld			Z_lelbext			Z_lelblow			Z_lelbtop			Z_lwrext			Z_lwrtop			Z_lwrlow			Z_rtopleg			Z_ltopleg			Z_rkneefr			Z_rkneebk			Z_rkneeis			Z_lkneefr			Z_lknssbk			Z_lkneeis			Z_rankfr			Z_rankis			Z_rankbk			Z_lankfr			Z_lankbk			Z_lankis			A_lasi			A_rasi			A_rpsi			A_lpsi			A_fneck			A_bneck			A_fhead			A_rhead			A_lhead			A_rshld			A_relbtop			A_relbext			A_relblow			A_rwrext			A_rwrtop			A_rwrlow			A_lshld			A_lelbext			A_lelblow			A_lelbtop			A_lwrext			A_lwrtop			A_lwrlow			A_rtopleg			A_ltopleg			A_rkneefr			A_rkneebk			A_rkneeis			A_lkneefr			A_lknssbk			A_lkneeis			A_rankfr			A_rankis			A_rankbk			A_lankfr			A_lankbk			A_lankis			
		X1	Y1	Z1	X2	Y2	Z2	X3	Y3	Z3	X4	Y4	Z4	X5	Y5	Z5	X6	Y6	Z6	X7	Y7	Z7	X8	Y8	Z8	X9	Y9	Z9	X10	Y10	Z10	X11	Y11	Z11	X12	Y12	Z12	X13	Y13	Z13	X14	Y14	Z14	X15	Y15	Z15	X16	Y16	Z16	X17	Y17	Z17	X18	Y18	Z18	X19	Y19	Z19	X20	Y20	Z20	X21	Y21	Z21	X22	Y22	Z22	X23	Y23	Z23	X24	Y24	Z24	X25	Y25	Z25	X26	Y26	Z26	X27	Y27	Z27	X28	Y28	Z28	X29	Y29	Z29	X30	Y30	Z30	X31	Y31	Z31	X32	Y32	Z32	X33	Y33	Z33	X34	Y34	Z34	X35	Y35	Z35	X36	Y36	Z36	X37	Y37	Z37	X38	Y38	Z38	X39	Y39	Z39	X40	Y40	Z40	X41	Y41	Z41	X42	Y42	Z42	X43	Y43	Z43	X44	Y44	Z44	X45	Y45	Z45	X46	Y46	Z46	X47	Y47	Z47	X48	Y48	Z48	X49	Y49	Z49	X50	Y50	Z50	X51	Y51	Z51	X52	Y52	Z52	X53	Y53	Z53	X54	Y54	Z54	X55	Y55	Z55	X56	Y56	Z56	X57	Y57	Z57	X58	Y58	Z58	X59	Y59	Z59	X60	Y60	Z60	X61	Y61	Z61	X62	Y62	Z62	X63	Y63	Z63	X64	Y64	Z64	X65	Y65	Z65	X66	Y66	Z66	X67	Y67	Z67	X68	Y68	Z68	X69	Y69	Z69	X70	Y70	Z70	X71	Y71	Z71	X72	Y72	Z72	X73	Y73	Z73	X74	Y74	Z74	

101	10.017	-235.95573	1082.07558	596.31817	-279.53796	1088.81638	393.40618	-110.52995	1109.23241	315.76117	-48.31385	1095.89844	553.38539	-261.37241	1441.37238	463.33088	-145.69450	1506.58020	475.77309	-311.19806	1658.41553	396.79943	-145.14189	1630.95062	389.85252	-201.79771	1641.37283	527.23305	-208.25062	1426.56708	266.25244	-148.78042	1106.64322	186.75797	-134.80680	1089.22348	243.92063	-221.09270	1118.46779	212.32075	-257.17564	882.75871	179.75702	-294.71125	900.03967	198.72221	-280.68909	896.09703	240.35545	-159.72731	1442.79648	660.13596	-103.66404	1127.80067	670.78171	-164.65057	1149.58664	733.30322	-95.78192	1148.70399	739.04457	-240.06990	898.18306	725.87906	-227.75898	890.94620	770.98404	-182.20734	884.75296	761.62552	-171.22097	920.63950	272.11710	-153.57893	896.56258	636.93989	-257.15185	417.37000	354.79195	-186.78297	444.12239	303.77808	-195.91072	433.55087	429.49684	-212.80060	451.11992	638.01842	-107.02360	473.66386	618.09662	-206.37331	442.91351	544.54979	-201.09917	176.21130	355.51456	-178.18933	177.22988	417.61543	-123.40070	171.54331	349.98821	-150.71121	168.55438	658.35823	-95.92178	165.17315	600.08934	-174.40413	172.33875	589.03221	-998.53943	1038.18481	470.77049	-987.08389	1039.94545	630.48317	-1145.08812	1040.23392	652.50191	-1120.15480	1047.10938	469.07295	-1031.11244	1380.57892	575.84747	-1169.14780	1416.92947	569.44683	-970.14915	1591.46881	579.96052	-1110.73318	1556.13037	673.36487	-1121.55899	1558.55560	510.63976	-1111.01883	1369.21951	747.88170	-1082.15271	1073.75229	782.98203	-1145.61806	1065.20554	771.86386	-1087.73972	1064.87747	725.93399	-1037.84447	829.31900	791.74805	-999.37584	844.71230	771.97830	-1017.28745	845.01434	736.36650	-1058.99857	1375.94833	399.53346	-1109.30344	1061.63673	383.78883	-1038.54294	1068.94852	395.07561	-1071.25549	1066.46957	351.92940	-1009.31671	843.49533	394.46239	-1022.69615	841.33812	352.94666	-978.36655	853.55164	350.18970	-1087.81052	876.37253	731.06979	-1055.38658	891.80618	393.93230	-1037.79404	452.65202	637.75665	-1144.90074	484.55643	685.86754	-1127.99034	484.91501	567.30232	-1021.88202	466.00441	508.50914	-1107.20314	479.46053	412.46689	-1130.05234	478.60062	536.46343	-1101.44005	165.08659	660.28587	-1136.50574	161.68066	595.39429	-1181.90208	151.24309	665.90744	-1070.06088	166.84650	457.27127	-1131.00266	167.01971	421.35811	-1130.22888	172.62411	510.59967 
102	10.033	-235.58886	1081.91772	593.16864	-279.00040	1088.67668	390.26501	-109.75246	1108.84804	312.75211	-47.89816	1095.63438	550.42908	-261.99541	1442.02072	460.91042	-145.24544	1505.75684	472.03697	-307.46223	1662.23999	398.23902	-143.20159	1627.16827	384.38068	-193.47044	1639.68857	523.77773	-209.13919	1425.63171	263.19412	-148.95033	1105.84496	183.50079	-135.07473	1088.39561	240.62912	-221.28452	1117.81822	208.91846	-257.79554	882.23190	176.17817	-295.41143	899.65019	195.06050	-281.45842	895.81299	236.70471	-161.30125	1442.16492	656.82014	-103.83980	1127.52724	666.80656	-163.59020	1149.43573	730.36797	-94.71129	1148.52585	734.95178	-241.27935	899.13551	724.75281	-228.21480	891.58257	769.62524	-182.81288	885.10422	759.53865	-170.77173	920.34943	269.19626	-153.78009	896.35597	634.02660	-257.02536	417.20276	352.76493	-186.51854	443.78857	302.07251	-195.50838	433.59383	427.42779	-215.10027	451.01582	637.17518	-109.28158	473.61187	617.28344	-208.21716	442.99416	543.48286	-200.69225	176.02409	354.45160	-178.09025	177.28765	416.84750	-122.86346	171.36326	349.09229	-151.34843	168.63222	657.80144	-96.65287	165.58327	599.69120	-175.00713	172.24863	588.34816	-998.85437	1038.32794	470.96176	-987.33871	1040.04501	630.71030	-1145.33844	1040.12230	652.71423	-1120.49416	1047.03377	469.22531	-1031.24237	1380.38620	576.06346	-1169.38217	1416.75735	569.73755	-970.29381	1591.30737	580.11131	-1110.82115	1556.00098	673.61115	-1121.76964	1558.42651	510.91099	-1111.15822	1369.43970	747.94586	-1082.59209	1073.92891	783.74512	-1145.98701	1065.47684	771.85295	-1087.91801	1065.05867	726.49193	-1038.86162	829.27368	792.47040	-1000.19913	844.67926	772.71042	-1017.81311	844.95293	736.97533	-1059.06342	1376.07071	399.98199	-1109.49989	1061.80809	383.75957	-1038.74870	1069.11255	395.14648	-1071.35590	1066.64688	351.97327	-1009.44313	843.57933	394.29672	-1022.54921	841.60782	352.85355	-978.40317	853.75549	350.18383	-1087.87689	876.28044	731.25481	-1055.37933	891.82121	394.12319	-1037.74742	452.62100	637.86591	-1144.82994	484.52679	685.98465	-1127.89230	484.91356	567.44156	-1021.78612	466.01780	508.60447	-1107.01073	479.48719	412.51125	-1130.02892	478.62659	536.49879	-1101.44806	165.01337	660.36362	-1136.48872	161.66687	595.46021	-1181.92451	151.24867	665.95245	-1070.06821	166.84013	457.32277	-1130.95818	167.03016	421.39336	-1130.24101	172.60838	510.63343 
103	10.050	-235.12884	1081.77559	589.91333	-278.05197	1088.34999	386.57036	-109.08553	1108.44391	309.69557	-47.40973	1095.35454	547.46243	-262.85835	1442.91458	459.12956	-144.79587	1504.62723	468.12305	-303.43464	1665.89661	400.50056	-141.76237	1623.24158	377.90314	-184.04461	1637.65579	519.66534	-209.89954	1424.66705	259.99531	-148.80940	1105.12520	179.94297	-135.13640	1087.56920	237.01298	-221.29625	1117.17102	205.30636	-258.37097	881.78368	172.08387	-296.08015	899.39018	190.59839	-282.59899	895.67390	232.34373	-162.23721	1441.84998	653.65799	-104.25618	1127.12486	662.66418	-162.28899	1149.38957	727.45743	-93.37255	1148.23402	730.62645	-242.60431	900.42938	724.81758	-228.39344	892.30797	769.17633	-183.41434	885.61249	758.00278	-170.38900	920.10567	266.22419	-154.14154	896.12999	631.09169	-256.60305	416.94645	350.76416	-186.11710	443.51017	300.21502	-195.03216	433.51376	425.28713	-217.86085	450.92056	636.43097	-112.41469	473.38970	616.93104	-210.71354	443.06175	542.47402	-200.14919	175.81011	353.31692	-177.75822	177.40316	415.78419	-122.41237	171.15227	348.32245	-152.67298	168.87680	657.36679	-97.50260	165.99619	599.42596	-175.76975	172.19376	587.85709	-999.06631	1038.39928	471.05198	-987.60612	1040.11002	630.87151	-1145.52803	1040.02190	652.85927	-1120.85190	1046.99677	469.33300	-1031.34720	1380.25711	576.25988	-1169.54208	1416.60599	569.90768	-970.44258	1591.26312	580.33695	-1110.97504	1555.87418	673.85765	-1121.98112	1558.31955	511.14265	-1111.31828	1369.67224	747.98981	-1082.78999	1074.22020	784.43237	-1146.14479	1065.77797	772.05307	-1088.01262	1065.21790	727.06718	-1039.70863	829.35143	793.14316	-1000.86388	844.57863	773.63960	-1018.35091	844.85809	737.84363	-1058.96477	1376.17645	400.45479	-1109.62364	1062.04018	383.55972	-1038.70522	1069.26964	395.06405	-1071.44958	1066.85371	351.94611	-1009.70863	843.68668	393.99784	-1022.66998	841.99532	352.89658	-978.42766	853.96965	350.26878	-1087.93388	876.19240	731.41785	-1055.41306	891.84296	394.33846	-1037.58324	452.64118	637.95906	-1144.66141	484.49368	686.08994	-1127.63084	484.92176	567.52609	-1021.69060	466.04198	508.77087	-1106.88614	479.46133	412.62505	-1129.93996	478.63937	536.64150	-1101.47400	165.04442	660.42374	-1136.43021	161.63288	595.48759	-1181.92039	151.25896	665.95482	-1070.03593	166.88097	457.35687	-1130.90408	167.03972	421.45664	-1130.20790	172.63332	510.69214 
104	10.067	-235.25742	1081.65512	587.21027	-277.76459	1088.20045	383.74825	-108.32982	1108.02162	306.63452	-47.04348	1094.95605	544.50939	-263.60865	1443.46848	457.71458	-144.33752	1503.13446	464.03530	-299.06000	1669.15192	403.41858	-141.33120	1618.99979	370.76515	-173.87970	1635.09094	514.69185	-210.68523	1423.73779	256.66967	-148.38023	1104.41177	176.30596	-135.26296	1086.71608	233.48019	-221.01246	1116.62865	201.58081	-258.83678	881.43143	167.55804	-296.63504	899.38194	185.53953	-283.91239	895.58121	227.21004	-163.46424	1441.42502	650.48393	-104.54062	1126.69922	658.54919	-160.88570	1149.48936	724.70108	-92.07525	1148.06046	726.28418	-243.93894	901.91612	725.87677	-228.48515	893.33633	769.86847	-183.75870	886.47331	756.59805	-169.89523	919.79538	263.17684	-154.56337	895.74516	628.14522	-256.19949	416.84608	348.57712	-185.61024	443.17657	298.23452	-195.22848	433.60443	423.49174	-221.20625	450.68684	635.59162	-115.56227	473.37753	616.14906	-213.89845	443.25329	541.61522	-199.79185	175.63326	352.30545	-177.27888	177.44967	414.69257	-121.93527	170.92966	347.31937	-153.50609	169.05975	656.86928	-98.55565	166.62300	599.11427	-176.81606	172.16063	587.36351	-999.30779	1038.45970	471.18576	-987.90169	1040.15137	631.06922	-1145.82565	1040.00854	652.97928	-1121.13098	1046.98074	469.34887	-1031.29623	1380.12360	576.38664	-1169.62868	1416.37192	570.00702	-970.65468	1591.32935	580.50316	-1111.17653	1555.75134	674.08173	-1122.15454	1558.21198	511.35071	-1111.39450	1369.82819	747.99316	-1082.68967	1074.50241	784.84360	-1146.17020	1066.02768	772.55142	-1088.17932	1065.35278	727.52731	-1040.38658	829.54453	794.25484	-1001.40282	844.56192	774.35181	-1019.05319	844.76212	738.56850	-1058.78769	1376.24237	400.79960	-1109.92325	1062.47574	383.19298	-1038.63930	1069.44290	394.96880	-1071.52420	1066.96045	351.88278	-1009.94072	843.85895	393.93879	-1022.71111	842.05383	352.91924	-978.47626	854.13704	350.43343	-1088.03909	876.12572	731.57486	-1055.59692	891.83952	394.44065	-1037.36839	452.66548	638.09864	-1144.41879	484.47174	686.08627	-1127.31552	484.94987	567.52766	-1021.61713	466.10184	508.96587	-1106.73904	479.48345	412.75063	-1129.77859	478.65715	536.80748	-1101.45958	164.86118	660.52063	-1136.32019	161.63021	595.49797	-1181.83678	151.28525	665.94109	-1070.16785	166.81883	457.46811	-1130.82909	167.08378	421.50604	-1130.28549	172.53048	510.71480 
